<svg width="566" height="124" viewBox="0 0 566 124" fill="none" xmlns="http://www.w3.org/2000/svg">
<g filter="url(#filter0_d_2_13)">
<path d="M97.8793 69.085C96.6593 67.845 95.2593 66.725 93.7493 65.685C91.7193 64.225 88.4193 62.285 89.5493 59.515C90.1093 58.045 91.8393 56.565 93.3693 55.125C94.4293 54.125 95.4193 53.035 96.2693 51.845C101.299 44.915 101.489 35.105 98.6093 27.225C95.5793 18.725 87.9693 12.725 79.5293 10.095C71.0293 7.23498 61.5993 6.84498 52.5693 6.94498C48.2493 6.94498 41.5393 6.94498 37.4193 6.94498C35.2093 6.86498 31.9893 7.09498 30.8793 8.55498L30.8593 8.57498C30.2993 9.22498 30.1693 9.95498 30.1993 10.755C30.3593 36.455 29.8993 106.315 30.3293 117.665C31.0593 119.685 33.4393 120.225 35.9593 120.245C41.5893 120.285 48.7093 120.245 54.3693 120.255C64.9693 120.215 76.1493 119.705 85.8793 115.755C94.9693 112.085 102.349 104.335 104.389 94.715C106.409 85.735 104.559 75.605 97.8593 69.055L97.8793 69.085ZM47.4893 49.445C47.4893 45.615 47.4893 42.005 47.4893 37.785C47.4893 32.935 47.4893 28.175 47.4893 25.405C47.4393 23.405 47.8693 22.305 50.2593 22.125C53.5393 21.905 57.3293 22.065 60.6193 22.155C68.0193 22.585 74.8993 23.165 79.6893 28.315C83.6093 32.855 84.2593 40.945 81.1993 46.005C76.9593 52.905 67.0293 54.285 59.3593 54.615C56.6793 54.715 53.4693 54.745 51.2593 54.695C50.3693 54.655 49.3793 54.615 48.5993 54.305H48.5693C47.1393 53.795 47.5693 51.455 47.4893 49.455V49.445ZM85.8793 93.055C84.3493 98.455 79.6893 101.935 74.5493 103.355C69.5993 104.825 63.0793 105.125 57.4493 105.195C55.1993 105.215 52.7293 105.255 50.9493 105.175C50.2093 105.135 49.4293 105.065 48.7593 104.825H48.7193C47.3893 104.285 47.5093 103.205 47.4893 101.135C47.4893 99.695 47.4893 98.275 47.4893 96.795C47.5193 88.405 47.4293 77.175 47.5193 71.835C47.5293 70.285 48.3893 69.885 49.9793 69.825C52.6893 69.705 55.6893 69.795 58.7393 69.765C63.6193 69.765 67.6893 69.755 72.2393 70.815C83.6193 73.195 88.8093 82.975 85.8693 93.045L85.8793 93.055Z" fill="white"/>
<path d="M296.479 37.655C287.329 39.315 280.249 44.775 275.469 52.545C270.889 59.605 267.359 67.495 266.499 76.205C265.809 82.205 265.859 88.205 266.769 93.805C266.769 93.805 266.769 93.805 266.759 93.815C263.069 97.335 258.919 100.525 252.479 103.585C249.749 104.765 245.659 106.745 242.989 105.895H242.959C240.799 104.815 242.289 101.485 242.739 99.635C244.169 95.055 245.019 89.965 245.389 85.035C246.159 72.755 245.069 56.935 237.569 46.815C232.309 39.755 224.279 36.765 215.669 36.855C208.779 36.895 201.619 38.775 196.009 42.875C187.719 48.705 183.969 58.625 179.989 67.615C176.549 75.355 175.499 84.045 176.379 92.515C176.529 94.265 176.779 95.965 177.119 97.605C175.759 98.975 174.369 100.305 172.889 101.495C170.699 103.285 168.339 104.845 165.779 106.025C158.699 109.275 149.629 109.885 144.469 103.965C142.259 101.465 141.129 98.115 141.339 94.765V94.695C141.499 91.885 142.569 89.125 143.929 86.645C154.509 69.555 162.129 50.815 163.729 30.715C164.389 21.085 164.209 8.56499 155.689 2.69499C152.749 0.714992 149.129 -0.0750078 145.839 0.0449922C134.289 1.15499 128.759 8.35499 124.999 27.555C122.319 42.975 121.969 56.905 121.989 72.965C122.019 75.415 122.079 77.895 122.199 80.305C122.329 83.315 122.619 86.215 122.299 89.115C121.909 94.255 118.599 98.615 114.969 102.265C112.869 104.485 110.639 106.665 108.419 108.915C105.889 111.545 102.769 114.865 103.039 118.685C103.289 122.435 107.189 123.945 110.459 122.935C113.389 122.115 115.819 120.055 118.289 117.775C122.699 113.565 126.169 109.275 131.889 114.385C133.619 115.825 135.339 117.565 137.249 118.825C140.129 120.765 143.419 121.985 146.839 122.595C160.329 125.075 173.129 119.405 182.319 110.245C186.629 116.675 193.129 121.195 201.429 122.865C208.689 124.535 215.699 123.935 223.109 122.885C227.799 122.225 232.569 121.535 237.639 120.585C247.719 118.655 256.039 115.465 262.589 111.855C265.809 109.975 268.489 108.275 270.839 106.475C275.689 115.805 284.459 122.155 298.279 122.215H298.349C328.519 122.335 336.919 93.075 333.619 67.215C331.059 43.725 316.389 33.905 296.509 37.625L296.479 37.655ZM138.679 71.385H138.669C137.239 70.455 138.019 61.485 137.969 59.185C138.139 52.385 139.689 12.555 146.719 14.245C149.819 16.435 149.669 24.905 149.599 28.745C149.239 41.335 146.669 54.085 142.329 65.195C141.719 66.765 140.919 68.735 140.139 70.055C139.549 71.055 139.039 71.535 138.669 71.375L138.679 71.385ZM228.549 90.465C227.409 97.405 225.439 106.775 218.689 109.565L218.639 109.585C215.999 110.625 212.999 110.465 210.279 109.765C202.549 107.995 198.129 101.665 196.419 93.545C194.169 83.185 194.819 72.165 198.709 62.245C200.929 56.885 204.939 52.615 210.619 51.435C219.579 49.685 225.409 54.295 227.429 62.915C229.569 71.905 229.759 81.315 228.539 90.455L228.549 90.465ZM299.539 107.645H299.479C290.769 107.925 285.249 102.685 283.319 93.775C281.599 86.365 281.539 78.545 282.569 71.045C283.599 64.065 285.309 57.585 291.329 53.955C295.309 51.645 300.269 50.835 304.789 51.595C311.599 52.665 314.979 58.575 316.439 65.085C319.829 79.685 319.069 106.605 299.529 107.645H299.539Z" fill="white"/>
<path d="M353.259 51.015C354.989 51.015 356.549 49.975 357.209 48.375C360.359 40.765 362.389 38.735 369.999 35.575C371.599 34.915 372.639 33.355 372.639 31.625C372.639 29.895 371.599 28.335 369.999 27.675C362.389 24.525 360.359 22.485 357.209 14.885C356.549 13.285 354.989 12.245 353.259 12.245C351.529 12.245 349.969 13.285 349.309 14.885C346.159 22.495 344.119 24.525 336.519 27.675C334.919 28.335 333.879 29.895 333.879 31.625C333.879 33.355 334.919 34.915 336.519 35.575C344.129 38.725 346.159 40.765 349.309 48.375C349.969 49.975 351.529 51.015 353.259 51.015ZM353.259 25.805C354.879 28.175 356.729 30.025 359.099 31.645C356.729 33.265 354.879 35.115 353.259 37.485C351.639 35.115 349.789 33.265 347.419 31.645C349.789 30.025 351.639 28.175 353.259 25.805Z" fill="white"/>
<path d="M505.899 39.445C500.969 43.005 498.809 49.245 498.789 55.285C498.759 57.475 498.959 59.555 499.299 61.505C499.639 63.445 500.149 65.375 499.899 66.685C499.329 69.595 495.669 68.655 493.379 68.065C479.179 63.805 468.549 52.725 461.499 45.845C460.999 45.225 460.459 44.625 459.889 44.055C449.149 33.465 430.599 34.485 419.009 43.475C415.689 46.155 412.299 49.275 408.419 45.745C396.309 32.505 375.369 33.885 364.289 47.815C361.519 51.365 358.499 55.715 353.599 55.935C351.619 56.055 349.159 55.645 347.799 55.705C345.749 55.645 345.389 57.165 345.499 58.895C345.539 68.415 345.469 99.005 345.499 113.795C345.539 115.725 345.269 116.925 346.289 118.335C348.219 120.395 351.649 120.305 354.589 120.345C357.699 120.195 361.609 119.985 362.089 116.445C362.309 104.765 362.089 77.535 362.169 68.825C362.099 66.675 362.389 65.015 363.779 63.175C369.469 55.685 379.399 49.265 389.019 52.755C399.179 56.385 399.159 70.625 399.239 80.205C399.239 89.305 399.239 102.685 399.239 111.715C399.309 113.715 398.999 116.005 399.739 117.695C401.299 120.715 406.359 120.345 409.399 120.305C413.739 119.995 416.189 118.975 415.909 114.225C415.909 110.945 415.909 108.215 415.909 104.455C415.809 92.955 416.189 80.985 415.599 69.645C415.189 65.325 416.919 61.275 420.279 58.525C427.159 52.205 437.639 49.105 445.649 54.375C453.449 60.095 452.729 71.695 452.969 80.455C452.989 89.925 452.949 105.805 452.969 113.755C452.609 119.185 455.179 120.155 460.349 120.345C463.189 120.365 467.759 120.455 469.149 117.715C470.069 115.095 469.509 112.035 469.649 109.055C469.649 105.605 469.649 102.105 469.649 98.595C469.589 90.175 469.789 81.425 469.529 73.395V73.335C469.439 71.335 469.299 69.295 469.089 67.265C477.829 73.325 488.929 78.895 501.089 80.085C505.489 80.935 507.709 83.285 509.429 87.165C512.119 93.075 514.729 98.395 514.399 104.645C514.069 109.835 509.659 112.285 504.539 110.905C499.599 109.625 496.219 104.885 494.079 100.835C492.759 98.475 492.009 95.575 489.979 93.835C487.389 91.585 483.089 93.015 481.479 95.765C480.079 98.075 480.729 100.835 481.499 103.265C484.439 112.415 492.879 122.345 504.809 123.335C519.579 124.685 530.539 114.295 527.479 99.375C526.709 95.155 524.999 90.495 523.139 86.195C521.979 83.275 520.189 80.725 521.089 77.805L521.109 77.755C522.179 75.015 524.879 73.735 527.089 71.645C533.609 65.625 537.149 57.585 535.429 48.905C533.089 34.625 515.919 32.065 505.879 39.475L505.899 39.445ZM519.789 64.565C518.699 65.925 516.549 67.855 514.959 67.085L514.919 67.065C513.409 66.335 512.759 64.315 512.279 62.745C510.509 57.025 509.509 47.475 516.949 45.805C521.629 44.955 523.669 49.375 523.679 53.555C523.779 57.575 522.329 61.595 519.789 64.565Z" fill="white"/>
</g>
<defs>
<filter id="filter0_d_2_13" x="0.140015" y="-29.9668" width="565.722" height="183.873" filterUnits="userSpaceOnUse" color-interpolation-filters="sRGB">
<feFlood flood-opacity="0" result="BackgroundImageFix"/>
<feColorMatrix in="SourceAlpha" type="matrix" values="0 0 0 0 0 0 0 0 0 0 0 0 0 0 0 0 0 0 127 0" result="hardAlpha"/>
<feOffset/>
<feGaussianBlur stdDeviation="15"/>
<feColorMatrix type="matrix" values="0 0 0 0 0 0 0 0 0 0 0 0 0 0 0 0 0 0 0.1 0"/>
<feBlend mode="normal" in2="BackgroundImageFix" result="effect1_dropShadow_2_13"/>
<feBlend mode="normal" in="SourceGraphic" in2="effect1_dropShadow_2_13" result="shape"/>
</filter>
</defs>
</svg>
