<?xml version="1.0" encoding="UTF-8"?><svg id="Layer_2" xmlns="http://www.w3.org/2000/svg" viewBox="0 0 147.91 144.34"><defs><style>.cls-1{fill:#191818;}</style></defs><g id="Layer_1-2"><path class="cls-1" d="M142.73,16.23c-11.19-17.85-35.36-22.05-51.23-7.21-14.1,13.4-18.5,28.91-22.3,50.31-.56,3.8-1.24,7.93-.9,11.69v.14c.04.4.09.77.15,1.13-.61,3.83.09,8.17.65,12.07,3.73,21.37,7.89,36.27,21.23,49.86,14.95,14.99,38.29,13.03,50.91-3.95,12.52-17.06,6.38-37.35-10.01-49.01-5.62-3.96-11.22-6.83-17.34-9.09,6.1-2.26,11.71-5.16,17.34-9.11,15.47-11.02,22.12-29.98,11.5-46.83ZM134.06,111.41v.11c-.69,9.15-8.47,17.41-17.49,18.82-14.43,1.93-23.83-11.58-29.76-30.13-1.42-4.54-2.7-9.78-3.41-13.95-.67-3.5-.05-6.69,4.19-6.37,6.71.72,14.23,2.92,20.92,5.24,17.09,6.57,25.83,14.77,25.55,26.29ZM108.5,59.21c-1.77.64-3.61,1.25-5.4,1.79-4.43,1.35-9.51,2.57-13.57,3.25-4.4.82-6.97-.48-6.26-5.27,2.8-19.04,14.24-48.34,33.19-44.99,8.91,1.34,16.66,9.37,17.55,18.4v.11c.66,11.66-8.32,20.15-25.5,26.72Z"/><path class="cls-1" d="M26.07,16.73c13.02-5.93,22.78,1.25,30.41,15.55,1.6,3.04,3.11,7,4.33,9.97.53,1.04.81,2.24,1.76,2.68,1.33.04,2.31-4.81,2.83-6.1,3.07-8.95,4.85-13.71-1.28-21.61l-.09-.12C55.76,5.52,42.01-2.26,27.59,1.02,14.71,3.73,3.89,14.28.86,27.08c-4.84,22,11.4,36.98,30.54,45.08C12.26,80.27-3.97,95.25.86,117.25c3.02,12.8,13.85,23.35,26.73,26.06,14.42,3.28,28.17-4.49,36.43-16.08l.09-.12c6.13-7.9,4.35-12.66,1.28-21.61-.52-1.29-1.5-6.14-2.83-6.1-.95.44-1.23,1.64-1.76,2.68-1.21,2.97-2.72,6.93-4.33,9.97-7.63,14.3-17.38,21.48-30.41,15.55-8.19-3.89-13.75-14.1-11.07-22.84,2.78-10.79,18.96-19.71,34.03-23.4,4.56-1.34,8.27-1.26,9.68-5.54.1-.31.18-.65.25-1,.2-.82.29-1.73.28-2.66,0-.93-.08-1.85-.28-2.66-.07-.35-.16-.69-.25-1-1.41-4.28-5.13-4.2-9.68-5.54-15.07-3.69-31.25-12.61-34.03-23.4-2.68-8.74,2.89-18.94,11.07-22.84Z"/></g></svg>