<svg width="36" height="36" viewBox="0 0 36 36" fill="none" xmlns="http://www.w3.org/2000/svg">
<g id="github">
<path id="vector" fill-rule="evenodd" clip-rule="evenodd" d="M18.0124 3.25C9.71094 3.25 3 10.0104 3 18.374C3 25.0594 7.29993 30.7185 13.2651 32.7214C14.0109 32.872 14.284 32.396 14.284 31.9956C14.284 31.645 14.2595 30.4431 14.2595 29.1909C10.0834 30.0925 9.21374 27.388 9.21374 27.388C8.54261 25.6353 7.54822 25.1848 7.54822 25.1848C6.18139 24.2583 7.64778 24.2583 7.64778 24.2583C9.16396 24.3585 9.95953 25.8107 9.95953 25.8107C11.3015 28.1142 13.4639 27.4633 14.3338 27.0626C14.458 26.086 14.8559 25.41 15.2784 25.0345C11.9477 24.6839 8.44336 23.3819 8.44336 17.5725C8.44336 15.9199 9.0395 14.5678 9.98412 13.5163C9.83508 13.1408 9.31299 11.588 10.1335 9.50983C10.1335 9.50983 11.401 9.10912 14.2592 11.0623C15.4828 10.7312 16.7448 10.5628 18.0124 10.5614C19.28 10.5614 20.5721 10.7368 21.7654 11.0623C24.6238 9.10912 25.8914 9.50983 25.8914 9.50983C26.7118 11.588 26.1894 13.1408 26.0404 13.5163C27.0099 14.5678 27.5815 15.9199 27.5815 17.5725C27.5815 23.3819 24.0771 24.6587 20.7215 25.0345C21.2685 25.5102 21.7405 26.4115 21.7405 27.8388C21.7405 29.867 21.7159 31.4947 21.7159 31.9953C21.7159 32.396 21.9894 32.872 22.7349 32.7217C28.7 30.7182 32.9999 25.0594 32.9999 18.374C33.0245 10.0104 26.289 3.25 18.0124 3.25Z" fill="black"/>
</g>
</svg>
