<svg width="36" height="36" viewBox="0 0 36 36" fill="none" xmlns="http://www.w3.org/2000/svg">
<g id="instagram">
<g id="vector">
<path fill-rule="evenodd" clip-rule="evenodd" d="M13.0934 13.0934C14.3947 11.7921 16.1597 11.061 18 11.061C19.8403 11.061 21.6053 11.7921 22.9066 13.0934C24.2079 14.3947 24.939 16.1597 24.939 18C24.939 19.8403 24.2079 21.6053 22.9066 22.9066C21.6053 24.2079 19.8403 24.939 18 24.939C16.1597 24.939 14.3947 24.2079 13.0934 22.9066C11.7921 21.6053 11.061 19.8403 11.061 18C11.061 16.1597 11.7921 14.3947 13.0934 13.0934ZM16.2762 22.1616C16.8227 22.388 17.4085 22.5045 18 22.5045C19.1947 22.5045 20.3404 22.0299 21.1852 21.1852C22.0299 20.3404 22.5045 19.1947 22.5045 18C22.5045 16.8053 22.0299 15.6596 21.1852 14.8148C20.3404 13.9701 19.1947 13.4955 18 13.4955C17.4085 13.4955 16.8227 13.612 16.2762 13.8384C15.7297 14.0648 15.2331 14.3966 14.8148 14.8148C14.3966 15.2331 14.0648 15.7297 13.8384 16.2762C13.612 16.8227 13.4955 17.4085 13.4955 18C13.4955 18.5915 13.612 19.1773 13.8384 19.7238C14.0648 20.2703 14.3966 20.7669 14.8148 21.1852C15.2331 21.6034 15.7297 21.9352 16.2762 22.1616Z" fill="black"/>
<path d="M26.4773 12.0948C26.7849 11.7872 26.9577 11.37 26.9577 10.935C26.9577 10.5 26.7849 10.0828 26.4773 9.77517C26.1697 9.46757 25.7525 9.29475 25.3174 9.29475C24.8824 9.29475 24.4652 9.46757 24.1576 9.77517C23.85 10.0828 23.6772 10.5 23.6772 10.935C23.6772 11.37 23.85 11.7872 24.1576 12.0948C24.4652 12.4024 24.8824 12.5753 25.3174 12.5753C25.7525 12.5753 26.1697 12.4024 26.4773 12.0948Z" fill="black"/>
<path fill-rule="evenodd" clip-rule="evenodd" d="M12.4344 4.581C13.8744 4.5153 14.3334 4.5 18 4.5C21.6675 4.5 22.1256 4.5162 23.5647 4.581C25.002 4.6467 25.9848 4.8762 26.8434 5.2083C27.7439 5.54747 28.5596 6.0788 29.2338 6.7653C29.9205 7.43969 30.4519 8.25576 30.7908 9.1566C31.1247 10.0152 31.3533 10.9971 31.419 12.4344C31.4847 13.8744 31.5 14.3334 31.5 18C31.5 21.6666 31.4847 22.1256 31.419 23.5656C31.3533 25.0029 31.1247 25.9848 30.7917 26.8434C30.4525 27.7439 29.9212 28.5596 29.2347 29.2338C28.5597 29.9214 27.7434 30.4524 26.8434 30.7908C25.9848 31.1247 25.0029 31.3533 23.5656 31.419C22.1256 31.4847 21.6666 31.5 18 31.5C14.3334 31.5 13.8744 31.4847 12.4344 31.419C10.9971 31.3533 10.0152 31.1247 9.1566 30.7917C8.25616 30.4525 7.44044 29.9212 6.7662 29.2347C6.0786 28.5597 5.5476 27.7434 5.2092 26.8434C4.8753 25.9848 4.6467 25.0029 4.581 23.5656C4.5153 22.1256 4.5 21.6675 4.5 18C4.5 14.3325 4.5162 13.8744 4.581 12.4353C4.6467 10.998 4.8762 10.0152 5.2083 9.1566C5.54747 8.25615 6.0788 7.44042 6.7653 6.7662C7.4403 6.0786 8.2566 5.5476 9.1566 5.2092C10.0152 4.8753 10.9971 4.6467 12.4344 4.581ZM23.4558 7.011C22.032 6.9462 21.6045 6.9327 18 6.9327C14.3955 6.9327 13.968 6.9462 12.5442 7.011C11.2284 7.0713 10.5138 7.2909 10.0377 7.4763C9.45127 7.69228 8.92075 8.03704 8.4852 8.4852C8.0136 8.9577 7.7202 9.4077 7.4763 10.0377C7.29 10.5138 7.0713 11.2284 7.011 12.5442C6.9462 13.968 6.9327 14.3955 6.9327 18C6.9327 21.6045 6.9462 22.032 7.011 23.4558C7.0713 24.7716 7.2909 25.4862 7.4763 25.9623C7.69242 26.5487 8.03716 27.0792 8.4852 27.5148C8.92081 27.9629 9.45131 28.3076 10.0377 28.5237C10.5138 28.71 11.2284 28.9287 12.5442 28.989C13.968 29.0538 14.3946 29.0673 18 29.0673C21.6054 29.0673 22.032 29.0538 23.4558 28.989C24.7716 28.9287 25.4862 28.7091 25.9623 28.5237C26.5487 28.3078 27.0793 27.963 27.5148 27.5148C27.9629 27.0792 28.3076 26.5487 28.5237 25.9623C28.71 25.4862 28.9287 24.7716 28.989 23.4558C29.0538 22.032 29.0673 21.6045 29.0673 18C29.0673 14.3955 29.0538 13.968 28.989 12.5442C28.9287 11.2284 28.7091 10.5138 28.5237 10.0377C28.2798 9.4077 27.9873 8.9577 27.5148 8.4852C27.0423 8.0136 26.5923 7.7202 25.9623 7.4763C25.4862 7.29 24.7716 7.0713 23.4558 7.011Z" fill="black"/>
</g>
</g>
</svg>
